<svg xmlns="http://www.w3.org/2000/svg" xmlns:xlink="http://www.w3.org/1999/xlink" viewBox="0 0 2070.23 551.85"><defs><style>.cls-1{fill:url(#linear-gradient);}.cls-2{fill:url(#linear-gradient-2);}</style><linearGradient id="linear-gradient" x1="2316.59" y1="275.93" x2="1035.11" y2="275.93" gradientUnits="userSpaceOnUse"><stop offset="0" stop-color="#6156f9"/><stop offset="1" stop-color="#1a129f"/></linearGradient><linearGradient id="linear-gradient-2" y1="285.41" x2="2070.23" y2="285.41" gradientUnits="userSpaceOnUse"><stop offset="0" stop-color="#6156f9"/><stop offset="0.1" stop-color="#5a50f1"/><stop offset="0.26" stop-color="#483eda"/><stop offset="0.45" stop-color="#2b22b4"/><stop offset="0.55" stop-color="#1a129f"/><stop offset="0.65" stop-color="#1f17a6"/><stop offset="0.79" stop-color="#2e26b9"/><stop offset="0.95" stop-color="#473dd8"/><stop offset="1" stop-color="#5046e3"/></linearGradient></defs><g id="Layer_2" data-name="Layer 2"><g id="Layer_1-2" data-name="Layer 1"><path class="cls-1" d="M2070.23,223.88v328H0V196.23C192.05,12.1,404-88.24,772.78,103.42q56.51,29.37,110.79,52.91C1159,276.19,1407.38,257.88,1612.7,188.08,1852.5,106.55,1928.12,229.8,2070.23,223.88Z"/><path class="cls-2" d="M2070.23,443.91V551.85H0V369.31c141.51-6.86,306.84-2.65,486.76-90.84,66-32.37,134-77.18,203.54-139.56,212.07-190.31,368.9-125.3,532.13-4C1442.81,298.63,1674.85,564.94,2070.23,443.91Z"/></g></g></svg>